<?xml version="1.0" encoding="utf-8"?>
<!-- Generator: Adobe Illustrator 18.0.0, SVG Export Plug-In . SVG Version: 6.00 Build 0)  -->
<!DOCTYPE svg PUBLIC "-//W3C//DTD SVG 1.1//EN" "http://www.w3.org/Graphics/SVG/1.1/DTD/svg11.dtd">
<svg version="1.1" id="Layer_1" xmlns="http://www.w3.org/2000/svg" xmlns:xlink="http://www.w3.org/1999/xlink" x="0px" y="0px"
	 viewBox="0 0 120 120" enable-background="new 0 0 120 120" xml:space="preserve">
<g>
	<path fill="#FFFFFF" d="M63.8,92.5V32.8c0-17.1-13.9-31-31-31l0,0c-17.1,0-31,13.9-31,31v67"/>
	<path fill="#0093FF" d="M1.7,101.5c-1,0-1.7-0.8-1.7-1.7v-67C0,14.7,14.7,0,32.8,0c18.1,0,32.8,14.7,32.8,32.8v59.8
		c0,1-0.8,1.7-1.7,1.7c-1,0-1.7-0.8-1.7-1.7V32.8c0-16.1-13.1-29.3-29.3-29.3C16.6,3.5,3.5,16.6,3.5,32.8v67
		C3.5,100.7,2.7,101.5,1.7,101.5z"/>
</g>
<g>
	<g>
		<g>
			<path fill="#0093FF" d="M46.1,37.7c-0.2,0-0.5-0.1-0.7-0.2l-7.5-3.5c-0.6-0.3-0.9-0.8-1-1.4c-0.1-0.6,0.2-1.2,0.7-1.6l7.5-5.4
				c0.8-0.6,1.9-0.4,2.4,0.4c0.6,0.8,0.4,1.9-0.4,2.4L42,32.2l4.8,2.2c0.9,0.4,1.3,1.4,0.8,2.3C47.4,37.3,46.7,37.7,46.1,37.7z"/>
		</g>
		<g>
			<path fill="#0093FF" d="M18.5,37.7c-0.7,0-1.3-0.4-1.6-1c-0.4-0.9,0-1.9,0.8-2.3l4.8-2.2l-5.1-3.7c-0.8-0.6-0.9-1.7-0.4-2.4
				c0.6-0.8,1.7-0.9,2.4-0.4l7.5,5.4c0.5,0.4,0.8,1,0.7,1.6c-0.1,0.6-0.4,1.2-1,1.4l-7.5,3.5C19,37.7,18.8,37.7,18.5,37.7z"/>
		</g>
	</g>
</g>
<g>
	<g>
		<g>
			<path fill="#FCDC21" d="M107.3,115.7c0,1.3-1.1,2.3-2.4,2.3H42c-1.3,0-2.4-1-2.5-2.3c0,0-0.5-8.4,1.1-25.4
				c1.6-17,4.4-26.8,4.4-26.8c0.4-1.2,1.7-2.4,3-2.4h51c1.3,0,2.6,1.2,3,2.4c0,0,3.2,11.4,4.4,26.8
				C107.5,105.6,107.3,115.7,107.3,115.7z"/>
		</g>
	</g>
	<g>
		<g>
			<g>
				<path fill="#FFFFFF" d="M98,103.7c0,1.3-0.8,2.3-2.1,2.3H51.4c-1.3,0-2.4-1-2.4-2.3V85c0-1.3,1.1-2,2.4-2h44.5
					c1.3,0,2.1,0.7,2.1,2V103.7z"/>
			</g>
		</g>
		<g>
			<g>
				<path fill="#0093FF" d="M99,104.6c0,1.9-1.6,3.4-3.5,3.4h-44c-1.9,0-3.5-1.5-3.5-3.4V85.4c0-1.9,1.6-3.4,3.5-3.4h44
					c1.9,0,3.5,1.5,3.5,3.4V104.6z M96,85.3c0-0.7-0.5-1.3-1.2-1.3H51.2c-0.6,0-1.2,0.6-1.2,1.3v18.4c0,0.7,0.5,1.3,1.2,1.3h43.7
					c0.6,0,1.2-0.6,1.2-1.3V85.3z"/>
			</g>
		</g>
	</g>
	<g>
		<g>
			<path fill="#0093FF" d="M105.5,120H42c-2.4,0-4.1-2-4.2-4.1c0-0.4-0.5-8.8,1.1-25.7c1.5-17,4.3-26.4,4.4-26.8
				c0.6-2,2.6-3.3,4.7-3.3h51c2.1,0,4.1,1.4,4.7,3.2c0.2,0.5,3.8,11.7,5,27.2c1.1,15.3,1,25.4,1,25.5
				C109.6,118.2,107.7,120,105.5,120z M48,63c-0.5,0-1.2,0.7-1.3,1.1c0,0.1-2.8,9.8-4.3,26.4c-1.5,16.7-1.1,24.9-1.1,24.9
				c0,0.5,0.5,0.6,0.7,0.6h63.5c0.2,0,0.6,0,0.6-0.5c0-0.1,0.2-10-1-25.1c-1.1-15-4.8-26.3-4.8-26.4c-0.1-0.5-0.8-1-1.4-1H48z"/>
		</g>
	</g>
	<g>
		<g>
			<polyline fill="#FFFFFF" points="54,70 54,41 91,41 91,70 			"/>
		</g>
		<g>
			<path fill="#0093FF" d="M92,72.1c-1,0-2-0.8-2-1.7V43H57v27.4c0,1-1,1.7-2,1.7c-1,0-2-0.8-2-1.7V40.7c0-1,1.3-1.7,2.2-1.7h36
				c1,0,2.7,0.7,2.7,1.7v29.6C94,71.3,93,72.1,92,72.1z"/>
		</g>
	</g>
	<g>
		<g>
			<g>
				<path fill="#0093FF" d="M58.2,93.4L58.2,93.4c0.7-0.4,1.5-0.6,2.5-0.6c2.4,0.2,3.6,1.8,3.8,4.9c-0.2,3-1.8,4.6-4.6,4.8
					c-2.8-0.2-4.3-1.8-4.5-5c0-3.5,1.8-6.7,5.3-9.7c0.3-0.3,0.6-0.5,0.8-0.4c0.5,0.1,0.8,0.4,0.8,0.9c0.1,0.2-0.2,0.5-0.7,1
					C60.2,90.3,59.1,91.7,58.2,93.4z M57.2,97.7c0.1,2.1,1,3.2,2.6,3.3c1.7-0.1,2.5-1.2,2.6-3.3c0-2.1-0.9-3.2-2.6-3.2
					C58.1,94.5,57.3,95.6,57.2,97.7z"/>
			</g>
			<g>
				<path fill="#0093FF" d="M59.8,102.9C59.8,102.9,59.8,102.9,59.8,102.9c-3-0.2-4.6-2-4.8-5.3c0-3.6,1.8-6.9,5.4-10
					c0.4-0.4,0.7-0.6,1.1-0.5c0.6,0.1,1,0.5,1,1.2c0.1,0.3-0.1,0.6-0.8,1.2c-1.1,0.9-2,2-2.8,3.3c0.5-0.2,1.1-0.3,1.8-0.3
					c2.5,0.2,3.9,1.9,4.1,5.2C64.5,101,62.9,102.7,59.8,102.9C59.9,102.9,59.9,102.9,59.8,102.9z M61.3,87.7c-0.1,0-0.3,0-0.5,0.3
					c-3.5,3-5.2,6.2-5.2,9.5c0.2,3,1.6,4.6,4.2,4.7c2.7-0.2,4.1-1.6,4.3-4.5c-0.2-3-1.3-4.5-3.5-4.6c-0.9,0-1.6,0.2-2.2,0.5
					c0,0-0.1,0-0.1,0h-0.1c-0.1,0-0.2-0.1-0.2-0.1c-0.1-0.1-0.1-0.2,0-0.3c0.9-1.7,2.1-3.1,3.4-4.2c0.6-0.5,0.6-0.7,0.6-0.7
					C61.9,88,61.7,87.8,61.3,87.7C61.3,87.7,61.3,87.7,61.3,87.7z M59.9,101.3c-1.8-0.1-2.8-1.3-2.9-3.6c0.1-2.8,1.6-3.5,2.9-3.5
					c0,0,0,0,0,0c1.3,0,2.9,0.6,2.9,3.5C62.7,100,61.7,101.2,59.9,101.3z M59.9,94.8c-1.5,0.1-2.3,1-2.4,2.9c0.1,2,0.9,3,2.4,3
					c1.5,0,2.2-1,2.3-3C62.2,95.7,61.5,94.8,59.9,94.8z"/>
			</g>
		</g>
		<g>
			<g>
				<path fill="#0093FF" d="M67.1,94.5c0.1-0.7,0.4-1,1.1-1.1c0.7,0.1,1,0.4,1.1,1.1c-0.1,0.7-0.4,1.1-1.1,1.2
					C67.5,95.6,67.2,95.2,67.1,94.5z M67.1,101.6c0.1-0.7,0.4-1,1.1-1.1c0.7,0.1,1,0.4,1.1,1.1c-0.1,0.7-0.4,1-1.1,1
					C67.5,102.6,67.2,102.2,67.1,101.6z"/>
			</g>
			<g>
				<path fill="#0093FF" d="M68.2,102.9c-0.8,0-1.3-0.4-1.4-1.3c0.1-0.8,0.5-1.3,1.3-1.4c0.9,0.1,1.3,0.5,1.4,1.3
					C69.5,102.4,69,102.9,68.2,102.9z M68.2,100.8c-0.5,0-0.7,0.3-0.8,0.8c0,0.5,0.3,0.7,0.8,0.7c0.5,0,0.7-0.2,0.8-0.7
					C68.9,101.1,68.7,100.8,68.2,100.8z M68.2,95.9C68.2,95.9,68.2,95.9,68.2,95.9c-0.6,0-1.3-0.3-1.4-1.4c0.1-0.8,0.5-1.3,1.3-1.4
					c0.9,0.1,1.3,0.5,1.4,1.3C69.5,95.6,68.8,95.9,68.2,95.9C68.2,95.9,68.2,95.9,68.2,95.9z M68.2,93.7c-0.5,0-0.7,0.3-0.8,0.8
					c0,0.5,0.3,0.8,0.8,0.8c0.5-0.1,0.7-0.3,0.8-0.9C68.9,94,68.7,93.7,68.2,93.7z"/>
			</g>
		</g>
		<g>
			<g>
				<path fill="#0093FF" d="M71.5,95.1c0.2-4.8,1.8-7.4,5-7.7c3.1,0.3,4.8,2.9,4.9,7.7c-0.2,4.7-1.8,7.2-4.9,7.5
					C73.3,102.3,71.6,99.8,71.5,95.1z M73.5,95.1c0.1,3.9,1,5.9,3,6c1.9-0.1,2.9-2.1,3-6c-0.1-3.9-1-5.9-3-6
					C74.6,89.1,73.6,91.2,73.5,95.1z"/>
			</g>
			<g>
				<path fill="#0093FF" d="M76.5,102.9C76.5,102.9,76.5,102.9,76.5,102.9c-3.4-0.2-5.2-2.9-5.3-7.8c0.2-5,2-7.7,5.3-8
					c3.3,0.3,5.1,3,5.3,7.9C81.6,99.9,79.8,102.6,76.5,102.9C76.5,102.9,76.5,102.9,76.5,102.9z M76.5,87.7c-3,0.3-4.5,2.7-4.7,7.4
					c0.2,4.6,1.7,7,4.7,7.2c3-0.3,4.5-2.6,4.7-7.2C81,90.4,79.5,88,76.5,87.7z M76.5,101.4c-2.1-0.1-3.2-2.2-3.3-6.3
					c0.1-4.1,1.1-6.2,3.2-6.3c0,0,0,0,0,0c2.1,0.1,3.2,2.2,3.2,6.3C79.7,99.1,78.6,101.3,76.5,101.4z M76.5,89.3
					c-1.7,0.1-2.6,2-2.7,5.7c0.1,3.7,1,5.6,2.7,5.7c1.7-0.1,2.6-2,2.7-5.7C79.1,91.4,78.2,89.4,76.5,89.3z"/>
			</g>
		</g>
		<g>
			<g>
				<path fill="#0093FF" d="M89.9,89.1h-6.4c-0.5-0.1-0.8-0.3-0.8-0.8c0.1-0.4,0.3-0.7,0.8-0.7h7.6c0.7,0,1,0.2,1,0.6
					c0,0.2-0.1,0.6-0.4,1.1L86.1,102c-0.2,0.4-0.5,0.6-1.1,0.6c-0.5,0-0.7-0.2-0.7-0.6c0-0.2,0.1-0.5,0.3-1L89.9,89.1L89.9,89.1z"/>
			</g>
			<g>
				<path fill="#0093FF" d="M85,102.9c-0.9,0-1-0.6-1-0.9c0-0.1,0-0.4,0.4-1.1l5.1-11.5h-5.9c-0.7-0.1-1-0.5-1.1-1.1
					c0.1-0.6,0.5-1,1.1-1.1l7.6,0c1.1,0,1.3,0.5,1.3,0.9c0,0.3-0.1,0.7-0.4,1.2l-5.6,12.8C86.2,102.4,85.8,102.9,85,102.9z
					 M89.9,88.8c0.2,0,0.3,0.1,0.3,0.3v0.1c0,0,0,0.1,0,0.1l-5.3,11.8c-0.3,0.6-0.3,0.8-0.3,0.9c0,0.1,0,0.3,0.5,0.3
					c0.6,0,0.7-0.2,0.8-0.4l5.6-12.8c0.3-0.6,0.4-0.9,0.4-1c0-0.2-0.2-0.3-0.7-0.3h-7.6c-0.4,0-0.5,0.3-0.5,0.5
					c0,0.3,0.2,0.5,0.6,0.5L89.9,88.8z"/>
			</g>
		</g>
	</g>
	<g>
		<g>
			<path fill="#0093FF" d="M84.9,56H62.8c-0.6,0-1.2-0.4-1.2-1c0-0.6,0.5-1,1.2-1h22.1c0.6,0,1.2,0.4,1.2,1C86,55.6,85.5,56,84.9,56
				z"/>
		</g>
	</g>
	<g>
		<g>
			<path fill="#0093FF" d="M84.9,61H62.8c-0.6,0-1.2-0.9-1.2-1.5s0.5-1.5,1.2-1.5h22.1c0.6,0,1.2,0.9,1.2,1.5S85.5,61,84.9,61z"/>
		</g>
	</g>
	<g>
		<g>
			<path fill="#0093FF" d="M75.6,66H62.8c-0.6,0-1.2-0.9-1.2-1.5c0-0.6,0.5-1.5,1.2-1.5h12.8c0.6,0,1.2,0.9,1.2,1.5
				C76.7,65.1,76.2,66,75.6,66z"/>
		</g>
	</g>
	<g>
		<g>
			<rect x="54" y="43" fill="#0093FF" width="37" height="7"/>
		</g>
		<g>
			<path fill="#0093FF" d="M93,49.3c0,1-0.8,1.7-1.7,1.7H54.7c-1,0-1.7-0.8-1.7-1.7v-7.5c0-1,0.8-1.7,1.7-1.7h36.5
				c1,0,1.7,0.8,1.7,1.7V49.3z M57,47h33v-4H57V47z"/>
		</g>
	</g>
</g>
<g>
	<path fill="#FFFFFF" d="M77.2,48.7c0,7,5.7,12.7,12.7,12.7c7,0,12.7-5.7,12.7-12.7c0-7-5.7-12.6-12.7-12.6
		C82.9,36,77.2,41.7,77.2,48.7z"/>
	<path fill="#0093FF" d="M89.8,63.1c-7.9,0-14.4-6.5-14.4-14.4c0-7.9,6.5-14.4,14.4-14.4c7.9,0,14.4,6.5,14.4,14.4
		C104.2,56.6,97.8,63.1,89.8,63.1z M89.8,37.8c-6,0-10.9,4.9-10.9,10.9c0,6,4.9,10.9,10.9,10.9c6,0,10.9-4.9,10.9-10.9
		C100.8,42.7,95.9,37.8,89.8,37.8z"/>
</g>
<g>
	<line fill="#FCC0B2" x1="50" y1="73" x2="97" y2="73"/>
	<path fill="#0095FF" d="M97.7,74H50c-1,0-1.7-1-1.7-2s0.8-2,1.7-2h47.7c1,0,1.7,1,1.7,2S98.6,74,97.7,74z"/>
</g>
<g>
	<ellipse fill="#0093FF" cx="32.3" cy="45.9" rx="3" ry="6.9"/>
	<path fill="#0093FF" d="M32.3,54.6c-3.2,0-4.7-4.5-4.7-8.6c0-4.2,1.5-8.6,4.7-8.6c3.2,0,4.7,4.5,4.7,8.6
		C37,50.1,35.6,54.6,32.3,54.6z M32.3,40.9c-0.5,0.5-1.2,2.2-1.2,5.1c0,2.8,0.8,4.6,1.2,5.1c0.5-0.5,1.2-2.2,1.2-5.1
		C33.6,43.1,32.8,41.4,32.3,40.9z"/>
</g>
</svg>
