<?xml version="1.0" encoding="utf-8"?>
<!-- Generator: Adobe Illustrator 18.0.0, SVG Export Plug-In . SVG Version: 6.00 Build 0)  -->
<!DOCTYPE svg PUBLIC "-//W3C//DTD SVG 1.1//EN" "http://www.w3.org/Graphics/SVG/1.1/DTD/svg11.dtd">
<svg version="1.1" id="Layer_1" xmlns="http://www.w3.org/2000/svg" xmlns:xlink="http://www.w3.org/1999/xlink" x="0px" y="0px"
	 viewBox="0 0 120 120" enable-background="new 0 0 120 120" xml:space="preserve">
<g>
	<rect x="2" y="2" fill="#A1B3B3" width="98" height="66"/>
	<path fill="#0093FF" d="M101,68.3c0,1-0.6,1.7-1.4,1.7H1.4C0.6,70,0,69.2,0,68.3V1.7C0,0.8,0.6,0,1.4,0h98.1c0.8,0,1.4,0.8,1.4,1.7
		V68.3z M3,67h96V3H3V67z"/>
</g>
<g>
	<g>
		<path fill="#FFFFFF" d="M55.4,118.1V56.4c0-17.2,13.9-31.1,31.1-31.1l0,0c17.2,0,31.1,13.9,31.1,31.1v61.9"/>
		<path fill="#0093FF" d="M117.6,120c-1,0-1.7-0.8-1.7-1.7V56.4c0-16.2-13.2-29.4-29.4-29.4c-16.2,0-29.4,13.2-29.4,29.4v61.7
			c0,1-0.8,1.7-1.7,1.7c-1,0-1.7-0.8-1.7-1.7V56.4c0-18.1,14.7-32.8,32.8-32.8c18.1,0,32.8,14.7,32.8,32.8v61.9
			C119.3,119.2,118.5,120,117.6,120z"/>
	</g>
</g>
<g>
	
		<rect x="21.1" y="52.9" transform="matrix(0.7221 -0.6918 0.6918 0.7221 -36.5937 33.078)" fill="#FFFFFF" width="3.5" height="18.4"/>
</g>
<g>
	<circle fill="#FFFFFF" cx="31.4" cy="74.3" r="12.5"/>
	<path fill="#0093FF" d="M31.4,88.5c-7.8,0-14.2-6.4-14.2-14.2S23.6,60,31.4,60c7.8,0,14.2,6.4,14.2,14.2S39.3,88.5,31.4,88.5z
		 M31.4,63.5c-5.9,0-10.8,4.8-10.8,10.8S25.5,85,31.4,85c5.9,0,10.8-4.8,10.8-10.8S37.4,63.5,31.4,63.5z"/>
</g>
<g>
	<path fill="#FFFFFF" d="M29,24.7c1,0,1.6,0,2.2-0.1V26c-0.6-0.1-1.3-0.1-2.2-0.1H16.5c-0.9,0-1.6,0-2.2,0.1v-1.4
		c0.6,0.1,1.2,0.1,2.2,0.1h1V18c0-0.9,0-1.6-0.1-2.2h1.6c-0.1,0.6-0.1,1.3-0.1,2.2v6.7h3.9v-13h-5.4c-0.9,0-1.5,0-2.2,0.1v-1.4
		c0.6,0.1,1.2,0.1,2.1,0.1h11.3c0.9,0,1.5,0,2.1-0.1v1.4c-0.6-0.1-1.3-0.1-2.1-0.1H24v5.5h3.8c0.9,0,1.5,0,2-0.1v1.4
		c-0.5-0.1-1.1-0.1-2-0.1H24v6.3H29z"/>
</g>
<g>
	<g>
		<path fill="#FFFFFF" d="M22.7,46.5v-13h-5.4c-0.9,0-1.5,0-2.2,0.1v-1.4c0.6,0.1,1.2,0.1,2.1,0.1h11.3c0.9,0,1.5,0,2.1-0.1v1.4
			c-0.6-0.1-1.3-0.1-2.1-0.1H24V39h3.8c0.9,0,1.5,0,2-0.1v1.4c-0.5-0.1-1.1-0.1-2-0.1H24v6.3 M17.5,43.1v-3.3c0-0.9,0-1.6-0.1-2.2
			h1.6c-0.1,0.6-0.1,1.3-0.1,2.2v3.3"/>
	</g>
</g>
<g>
	<g>
		<path fill="#0093FF" d="M80.4,61.2c0,0-1.1,9.8,6.6,9.8c7.7,0,6.6-9.8,6.6-9.8H80.4z"/>
		<path fill="#0093FF" d="M87,71.6c-2.1,0-3.8-0.7-5.1-2.1c-2.7-3-2.1-8.1-2.1-8.4c0-0.3,0.3-0.5,0.6-0.5h13.1
			c0.3,0,0.5,0.2,0.6,0.5c0,0.2,0.6,5.3-2.1,8.4C90.8,70.9,89.1,71.6,87,71.6z M80.9,61.8c-0.1,1.3,0,4.8,1.8,6.9
			c1,1.1,2.4,1.7,4.2,1.7c1.8,0,3.2-0.6,4.2-1.7c1.9-2.1,1.9-5.6,1.8-6.9H80.9z"/>
	</g>
	<g>
		<line fill="#FFFFFF" x1="97.9" y1="52.3" x2="94.3" y2="55.9"/>
		<path fill="#0093FF" d="M94.3,57.6c-0.4,0-0.9-0.2-1.2-0.5c-0.7-0.7-0.7-1.8,0-2.4l3.6-3.6c0.7-0.7,1.8-0.7,2.4,0
			c0.7,0.7,0.7,1.8,0,2.4l-3.6,3.6C95.2,57.5,94.7,57.6,94.3,57.6z"/>
	</g>
	<g>
		<line fill="#FFFFFF" x1="75" y1="52.3" x2="78.6" y2="55.9"/>
		<path fill="#0093FF" d="M78.6,57.6c-0.4,0-0.9-0.2-1.2-0.5l-3.6-3.6c-0.7-0.7-0.7-1.8,0-2.4c0.7-0.7,1.8-0.7,2.4,0l3.6,3.6
			c0.7,0.7,0.7,1.8,0,2.4C79.5,57.4,79.1,57.6,78.6,57.6z"/>
	</g>
</g>
</svg>
