<?xml version="1.0" encoding="utf-8"?>
<!-- Generator: Adobe Illustrator 18.0.0, SVG Export Plug-In . SVG Version: 6.00 Build 0)  -->
<!DOCTYPE svg PUBLIC "-//W3C//DTD SVG 1.1//EN" "http://www.w3.org/Graphics/SVG/1.1/DTD/svg11.dtd">
<svg version="1.1" id="Layer_1" xmlns="http://www.w3.org/2000/svg" xmlns:xlink="http://www.w3.org/1999/xlink" x="0px" y="0px"
	 viewBox="0 0 120 120" enable-background="new 0 0 120 120" xml:space="preserve">
<g>
	<path fill="#0093FF" d="M36.7,50c-3.1,0-5.7-2.5-5.7-5.7c0-3.1,2.5-5.7,5.7-5.7c3.1,0,5.7,2.5,5.7,5.7C42.4,47.4,39.8,50,36.7,50z
		 M36.7,41.8c-1.4,0-2.5,1.1-2.5,2.5c0,1.4,1.1,2.5,2.5,2.5c1.4,0,2.5-1.1,2.5-2.5C39.2,42.9,38.1,41.8,36.7,41.8z"/>
</g>
<g>
	<path fill="#0093FF" d="M56.3,50c-3.1,0-5.7-2.5-5.7-5.7c0-3.1,2.5-5.7,5.7-5.7c3.1,0,5.7,2.5,5.7,5.7C62,47.4,59.4,50,56.3,50z
		 M56.3,41.8c-1.4,0-2.5,1.1-2.5,2.5c0,1.4,1.1,2.5,2.5,2.5c1.4,0,2.5-1.1,2.5-2.5C58.8,42.9,57.6,41.8,56.3,41.8z"/>
</g>
<g>
	<path fill="#0093FF" d="M15.3,116.5c-0.9,0-1.6-0.7-1.6-1.6V42.3C13.7,23.4,28.3,8,46.3,8c18,0,32.6,15.4,32.6,34.3v36.5
		c0,0.9-0.7,1.6-1.6,1.6c-0.9,0-1.6-0.7-1.6-1.6V42.3c0-17.1-13.2-31-29.4-31c-16.2,0-29.4,13.9-29.4,31v72.6
		C16.9,115.8,16.2,116.5,15.3,116.5z"/>
</g>
<g>
	<path fill="#0093FF" d="M41.2,64c0,0-0.9,8,5.3,8c6.2,0,5.3-8,5.3-8H41.2z"/>
	<path fill="#0093FF" d="M46.5,72.6c-1.7,0-3.1-0.6-4.1-1.7c-2.2-2.5-1.7-6.8-1.7-6.9c0-0.3,0.3-0.5,0.5-0.5h10.6
		c0.3,0,0.5,0.2,0.5,0.5c0,0.2,0.5,4.5-1.7,6.9C49.6,72.1,48.2,72.6,46.5,72.6z M41.7,64.6c0,1.1,0,3.9,1.5,5.6
		c0.8,0.9,1.9,1.3,3.3,1.3c1.4,0,2.5-0.5,3.3-1.3c1.5-1.7,1.5-4.5,1.5-5.6H41.7z"/>
</g>
<g>
	<path fill="#C1272D" d="M44.2,48.6c0,8.4-8.4,15.2-16.8,15.2h-7.1c-8.4,0-11.9-6.8-11.9-15.2l0,0c0-8.4,0.3-15.2,8.6-15.2h20.2
		c5,0,6.9,3.3,6.9,6.2C44.2,42.5,44.2,45.3,44.2,48.6L44.2,48.6z"/>
	<path fill="#0093FF" d="M27.4,65.4h-7.1c-8.5,0-13.5-6.3-13.5-16.8c0-7.9,0-16.8,10.2-16.8h20.2c5.9,0,8.6,4,8.6,7.8
		c0,1.4,0,2.7,0,4.1c0,1.5,0,3.1,0,4.9C45.8,57.6,37.2,65.4,27.4,65.4z M17,35.1c-6.4,0-7,4.1-7,13.6c0,4.1,1,13.6,10.3,13.6h7.1
		c7.2,0,15.2-5.8,15.2-13.6c0-1.7,0-3.3,0-4.8c0-1.4,0-2.8,0-4.1c0-0.8-0.3-4.6-5.3-4.6H17z"/>
</g>
<g>
	<path fill="#F15A24" d="M16.8,48.5c-0.8,0-1.5-0.6-1.6-1.5c0-0.3-0.1-2.7,1.4-4.7c1.6-2.2,4-2.4,4.3-2.4c0.9-0.1,1.7,0.6,1.7,1.5
		c0.1,0.9-0.6,1.6-1.5,1.7c-0.1,0-1.2,0.1-2,1.1c-0.8,1.1-0.8,2.6-0.8,2.6c0.1,0.9-0.6,1.7-1.5,1.7C16.9,48.5,16.9,48.5,16.8,48.5z"
		/>
</g>
<g>
	<path fill="#2E3192" d="M48.8,48.6c0,8.4,8.4,15.2,16.8,15.2h7.1c8.4,0,11.9-6.8,11.9-15.2l0,0c0-8.4-0.3-15.2-8.6-15.2H55.8
		c-5,0-6.9,3.3-6.9,6.2C48.8,42.5,48.8,45.3,48.8,48.6L48.8,48.6z"/>
	<path fill="#0093FF" d="M72.7,65.4h-7.1c-9.8,0-18.4-7.8-18.4-16.8c0-1.8,0-3.3,0-4.9c0-1.4,0-2.7,0-4.1c0-3.8,2.7-7.8,8.6-7.8H76
		c10.2,0,10.2,8.9,10.2,16.8C86.2,59.1,81.1,65.4,72.7,65.4z M55.8,35.1c-5.1,0-5.3,3.8-5.3,4.6c0,1.4,0,2.7,0,4.1
		c0,1.5,0,3.1,0,4.8c0,7.8,8,13.6,15.2,13.6h7.1C82,62.2,83,52.7,83,48.6c0-9.4-0.7-13.6-7-13.6H55.8z"/>
</g>
<g>
	<path fill="#0093FF" d="M57.3,48.5c-0.8,0-1.5-0.6-1.6-1.5c0-0.3-0.1-2.7,1.4-4.7c1.6-2.2,4-2.4,4.3-2.4c0.9-0.1,1.7,0.6,1.7,1.5
		c0.1,0.9-0.6,1.6-1.5,1.7c-0.1,0-1.2,0.1-2,1.1c-0.8,1.1-0.8,2.6-0.8,2.6c0.1,0.9-0.6,1.7-1.5,1.7C57.4,48.5,57.3,48.5,57.3,48.5z"
		/>
</g>
<g>
	<path fill="#0093FF" d="M47.1,41h-1.5c-0.9,0-1.6-0.7-1.6-1.6c0-0.9,0.7-1.6,1.6-1.6h1.5c0.9,0,1.6,0.7,1.6,1.6
		C48.7,40.2,48,41,47.1,41z"/>
</g>
<g>
	<path fill="#0093FF" d="M115.8,78.2c-0.3,0-0.5-0.1-0.8-0.2c-0.1-0.1-10.1-5.6-27.1-5.6c-16.9,0-24.6,5.4-24.7,5.5
		c-0.7,0.5-1.7,0.4-2.2-0.4c-0.5-0.7-0.4-1.7,0.3-2.2c0.3-0.2,8.5-6.1,26.6-6.1c17.9,0,28.3,5.8,28.7,6c0.8,0.4,1,1.4,0.6,2.2
		C116.9,77.9,116.3,78.2,115.8,78.2z"/>
</g>
<g>
	<path fill="#0093FF" d="M64.7,79.3c-0.5,0-1-0.2-1.3-0.6c-0.5-0.7-0.4-1.7,0.3-2.2c0.2-0.2,6-4.5,24.1-4.5c17.9,0,25.3,4,25.6,4.2
		c0.8,0.4,1.1,1.4,0.6,2.2c-0.4,0.8-1.4,1.1-2.2,0.6c-0.1,0-7.1-3.8-24.1-3.8c-16.7,0-22.1,3.8-22.1,3.9
		C65.4,79.2,65,79.3,64.7,79.3z"/>
</g>
<g>
	<circle fill="#FBB03B" cx="75.7" cy="75.3" r="5.6"/>
</g>
<g>
	<path fill="#FBB03B" d="M94.6,73.8c0,3.1-2.5,5.6-5.6,5.6c-3.1,0-5.6-2.5-5.6-5.6c0-3.1,2.5-5.6,5.6-5.6
		C92.1,68.2,94.6,70.7,94.6,73.8z"/>
</g>
<g>
	<circle fill="#FBB03B" cx="102.3" cy="75.3" r="5.6"/>
</g>
<g>
	<g>
		<path fill="#FFED8E" d="M90.2,63.4c0.1,0.1,0.3,0.2,0.5,0.3c-1.1,2.9-0.2,6.2,2.4,8.1c3.1,2.2,7.5,1.5,9.7-1.6
			c0.3-0.4,0.5-0.8,0.7-1.3c1.5,0.4,3.2-0.1,4.2-1.5c1.3-1.8,0.9-4.2-0.9-5.5c-0.7-0.5-1.6-0.8-2.5-0.7c1.4-2.3,0.9-5.3-1.3-6.8
			c-2.3-1.6-5.4-1.1-7.1,1.2c-0.7,0.9-1,2-0.9,3.1c-0.2-0.3-0.5-0.6-0.8-0.9c-1.6-1.1-3.7-0.8-4.9,0.8
			C88.2,60.1,88.6,62.3,90.2,63.4z"/>
		<path fill="#0093FF" d="M97.1,74.7L97.1,74.7c-1.8,0-3.5-0.6-5-1.6c-2.8-2-4.1-5.5-3.4-8.8c-0.8-0.8-1.4-1.8-1.6-2.9
			c-0.2-1.3,0.1-2.7,0.9-3.8c1-1.3,2.5-2.1,4.1-2.1c0.6,0,1.2,0.1,1.8,0.3c0.2-0.4,0.4-0.8,0.7-1.2c1.2-1.7,3.3-2.8,5.4-2.8
			c1.4,0,2.7,0.4,3.9,1.2c2.2,1.6,3.2,4.4,2.6,6.9c0.4,0.2,0.8,0.4,1.2,0.6c2.5,1.8,3.1,5.3,1.3,7.7c-1.1,1.5-2.8,2.3-4.6,2.3
			c-0.1,0.2-0.2,0.3-0.3,0.5C102.5,73.4,99.9,74.7,97.1,74.7z M92.2,58.7c-0.6,0-1.2,0.3-1.5,0.8c-0.3,0.4-0.4,0.9-0.3,1.4
			c0.1,0.5,0.4,0.9,0.8,1.2c0.1,0.1,0.2,0.1,0.2,0.1c0.7,0.4,1.1,1.2,0.8,2c-0.9,2.3-0.1,4.8,1.9,6.2c0.9,0.7,2,1,3.1,1
			c1.7,0,3.4-0.8,4.4-2.2c0.2-0.3,0.4-0.6,0.6-1c0.3-0.7,1.1-1.1,1.9-0.9c0.9,0.2,1.9-0.1,2.5-0.9c0.7-1,0.5-2.5-0.5-3.3
			c-0.5-0.3-1-0.4-1.3-0.4l-0.1,0c-0.6,0-1.2-0.3-1.5-0.8c-0.3-0.5-0.3-1.2,0-1.7c1-1.5,0.6-3.6-0.9-4.7c-1.5-1.1-3.7-0.7-4.8,0.8
			c-0.4,0.6-0.7,1.3-0.6,2.1c0,0.7-0.4,1.3-1.1,1.6c-0.7,0.2-1.4,0-1.8-0.6c-0.1-0.2-0.3-0.4-0.4-0.5C93,58.8,92.6,58.7,92.2,58.7z"
			/>
	</g>
	<g>
		<path fill="#FFDD00" d="M84.7,52.6c-0.1,0.2-0.1,0.3-0.1,0.5c-2.8-0.4-5.6,1.2-6.7,3.9c-1.3,3.2,0.2,7,3.5,8.3
			c0.4,0.2,0.8,0.3,1.3,0.4c0,1.5,0.8,2.8,2.2,3.4c1.8,0.8,3.9-0.1,4.7-2c0.3-0.8,0.3-1.6,0.1-2.3c2.3,0.8,4.9-0.3,5.8-2.6
			c1-2.4-0.2-5-2.5-6c-1-0.4-2-0.4-2.9-0.2c0.2-0.3,0.5-0.6,0.6-0.9c0.7-1.6-0.1-3.5-1.7-4.1C87.2,50.2,85.4,51,84.7,52.6z"/>
		<path fill="#0093FF" d="M86.2,70.9c-0.7,0-1.3-0.1-2-0.4c-1.6-0.6-2.7-2-3.1-3.7c-0.1,0-0.3-0.1-0.4-0.2c-2-0.8-3.5-2.3-4.3-4.3
			c-0.8-2-0.8-4.1,0-6.1c1.2-2.9,4-4.8,7.1-4.9c0.8-1.5,2.4-2.4,4.1-2.4c0.6,0,1.2,0.1,1.8,0.4c2,0.8,3.2,2.9,2.9,4.9
			c0.4,0.1,0.8,0.2,1.1,0.3c3.2,1.3,4.7,4.9,3.4,8.1c-0.9,2.3-3.1,3.8-5.6,3.8c-0.1,0.4-0.2,0.7-0.3,1.1
			C90.2,69.7,88.3,70.9,86.2,70.9z M83.7,54.6c-1.9,0-3.7,1.2-4.4,2.9c-0.5,1.2-0.5,2.5,0,3.6c0.5,1.2,1.4,2.1,2.6,2.6
			c0.3,0.1,0.6,0.2,1,0.3c0.8,0.1,1.3,0.8,1.3,1.6c0,0.8,0.5,1.6,1.2,1.9c1,0.4,2.2-0.1,2.6-1.1c0.2-0.5,0.1-1,0.1-1.3
			c-0.2-0.6,0-1.2,0.4-1.6c0.4-0.4,1.1-0.5,1.6-0.3c1.5,0.5,3.2-0.2,3.8-1.7c0.6-1.5-0.1-3.3-1.6-3.9c-0.6-0.2-1.3-0.3-1.9-0.1
			c-0.7,0.2-1.4-0.1-1.8-0.7c-0.4-0.6-0.3-1.4,0.2-1.9c0.1-0.2,0.2-0.3,0.3-0.5c0.3-0.8-0.1-1.7-0.9-2c-0.8-0.3-1.7,0.1-2,0.9
			c0,0.1,0,0.1-0.1,0.2c-0.2,0.8-1,1.3-1.8,1.2C84.1,54.7,83.9,54.6,83.7,54.6z"/>
	</g>
	<g>
		<path fill="#FFFCD5" d="M65.5,75.8c0.2,0,0.4,0,0.6-0.1c0.8,3.2,3.7,5.5,7.2,5.5c4.1,0,7.4-3.3,7.4-7.4c0-0.5-0.1-1-0.2-1.5
			c1.6-0.6,2.7-2.1,2.7-3.9c0-2.3-1.9-4.2-4.2-4.2c-1,0-1.9,0.3-2.6,0.9c-0.1-2.9-2.5-5.1-5.4-5.1c-3,0-5.4,2.4-5.4,5.4
			c0,1.2,0.4,2.3,1.1,3.3c-0.4-0.1-0.8-0.2-1.3-0.2c-2.1,0-3.7,1.7-3.7,3.7C61.8,74.1,63.5,75.8,65.5,75.8z"/>
		<path fill="#0093FF" d="M73.3,82.9c-3.7,0-6.9-2.2-8.3-5.5c-2.7-0.3-4.8-2.6-4.8-5.3c0-2.5,1.7-4.6,4.1-5.2
			c-0.1-0.5-0.2-1-0.2-1.6c0-3.9,3.1-7,7-7c2.9,0,5.5,1.8,6.5,4.4c0.5-0.1,1-0.2,1.5-0.2c3.2,0,5.8,2.6,5.8,5.8c0,2-1,3.8-2.6,4.8
			c0,0.2,0,0.4,0,0.6C82.3,78.8,78.3,82.9,73.3,82.9z M66.1,74.1c0.7,0,1.4,0.5,1.6,1.2c0.7,2.6,3,4.3,5.6,4.3
			c3.2,0,5.8-2.6,5.8-5.8c0-0.4,0-0.8-0.1-1.2c-0.2-0.8,0.3-1.6,1-1.8c1-0.4,1.7-1.3,1.7-2.4c0-1.4-1.2-2.6-2.6-2.6
			c-0.7,0-1.3,0.3-1.6,0.6c-0.5,0.4-1.1,0.4-1.7,0.2c-0.5-0.2-0.9-0.8-0.9-1.4c-0.1-2-1.8-3.6-3.8-3.6c-2.1,0-3.8,1.7-3.8,3.8
			c0,0.8,0.3,1.6,0.8,2.3c0.4,0.6,0.4,1.4,0,1.9c-0.4,0.6-1.2,0.8-1.8,0.6C66,70,65.8,70,65.5,70c-1.2,0-2.1,0.9-2.1,2.1
			c0,1.2,0.9,2.1,2.1,2.1c0.1,0,0.2,0,0.3,0C65.9,74.1,66,74.1,66.1,74.1z"/>
	</g>
	<g>
		<path fill="#FFC40C" d="M96.2,75c-0.2-0.1-0.4-0.2-0.6-0.3c1.4-3.6,0.2-7.8-3.1-10.2c-3.9-2.8-9.4-1.9-12.2,2
			c-0.4,0.5-0.7,1-0.9,1.6c-1.9-0.5-4.1,0.2-5.3,1.9c-1.6,2.2-1.1,5.3,1.1,6.9c0.9,0.7,2,0.9,3.1,0.9c-1.8,2.8-1.1,6.6,1.6,8.6
			c2.9,2,6.8,1.4,8.9-1.5c0.8-1.2,1.2-2.5,1.2-3.9c0.3,0.4,0.6,0.8,1,1.1c2,1.4,4.7,1,6.1-1C98.6,79.2,98.2,76.4,96.2,75z"/>
		<path fill="#0093FF" d="M83.7,89.2c-1.7,0-3.3-0.5-4.6-1.5c-2.8-2-3.9-5.5-3-8.6c-0.6-0.2-1.2-0.5-1.7-0.9c-1.4-1-2.4-2.5-2.7-4.3
			c-0.3-1.7,0.1-3.5,1.1-4.9c1.3-1.8,3.5-2.8,5.7-2.7c0.2-0.3,0.3-0.5,0.5-0.8c1.9-2.7,5.1-4.3,8.4-4.3c2.2,0,4.3,0.7,6,1.9
			c3.4,2.5,5,6.8,4,10.8c1.1,0.9,1.8,2.2,2,3.6c0.3,1.6-0.1,3.2-1,4.5c-1.1,1.6-2.9,2.5-4.9,2.5l0,0c-0.9,0-1.7-0.2-2.5-0.5
			c-0.2,0.6-0.6,1.3-1,1.8C88.7,87.9,86.3,89.2,83.7,89.2z M78.4,76.2c0.6,0,1.1,0.3,1.4,0.8c0.3,0.5,0.3,1.2,0,1.7
			c-1.4,2.1-0.8,4.9,1.2,6.4c0.8,0.6,1.8,0.9,2.8,0.9c1.5,0,3-0.7,3.9-2c0.6-0.8,0.9-1.8,0.9-2.9c0-0.7,0.4-1.4,1.1-1.6
			c0.7-0.2,1.4,0,1.8,0.6c0.2,0.3,0.4,0.5,0.7,0.7c0.5,0.3,1,0.5,1.6,0.5l0,0c0.9,0,1.7-0.4,2.3-1.2c0.4-0.6,0.6-1.3,0.5-2.1
			c-0.1-0.7-0.5-1.4-1.1-1.8c-0.1-0.1-0.2-0.1-0.4-0.2c-0.7-0.4-1.1-1.2-0.8-2c1.1-3,0.1-6.4-2.5-8.3c-1.2-0.9-2.7-1.3-4.2-1.3
			c-2.3,0-4.5,1.1-5.8,3c-0.3,0.4-0.5,0.8-0.7,1.3c-0.3,0.7-1.1,1.1-1.9,0.9c-1.3-0.4-2.8,0.2-3.6,1.3c-0.5,0.7-0.7,1.6-0.6,2.5
			c0.1,0.9,0.6,1.7,1.4,2.2c0.6,0.4,1.2,0.6,1.9,0.6L78.4,76.2C78.3,76.2,78.3,76.2,78.4,76.2z"/>
	</g>
	<g>
		<line fill="#FFFFFF" x1="111.3" y1="55.9" x2="113.3" y2="53.4"/>
		<path fill="#FFC40C" d="M111.3,57.5c-0.4,0-0.7-0.1-1-0.4c-0.7-0.6-0.8-1.6-0.2-2.3l2-2.5c0.6-0.7,1.6-0.8,2.3-0.2
			c0.7,0.6,0.8,1.6,0.2,2.3l-2,2.5C112.2,57.3,111.7,57.5,111.3,57.5z"/>
	</g>
	<g>
		<line fill="#FFFFFF" x1="115.1" y1="59.9" x2="118.4" y2="58.4"/>
		<path fill="#FFC40C" d="M115.1,61.5c-0.6,0-1.2-0.4-1.5-1c-0.4-0.8,0-1.8,0.8-2.1l3.3-1.5c0.8-0.4,1.8,0,2.1,0.8
			c0.4,0.8,0,1.8-0.8,2.1l-3.3,1.5C115.5,61.5,115.3,61.5,115.1,61.5z"/>
	</g>
	<g>
		<path fill="#FFC40C" d="M84.7,75.2c0,0,2.6-1.4,4.7,1"/>
		<path fill="#FFEC9D" d="M89.4,77.8c-0.4,0-0.9-0.2-1.2-0.5c-1.2-1.4-2.6-0.7-2.7-0.7c-0.8,0.4-1.8,0.1-2.2-0.7
			c-0.4-0.8-0.1-1.8,0.7-2.2c1.3-0.7,4.3-1.3,6.6,1.4c0.6,0.7,0.5,1.7-0.1,2.3C90.2,77.7,89.8,77.8,89.4,77.8z"/>
	</g>
	<g>
		<path fill="#FFDD00" d="M112.2,67.3c-0.3,0-0.5,0.1-0.7,0.1c-1.5-4.1-5.6-6.9-10.1-6.5c-5.4,0.5-9.4,5.3-9,10.7
			c0.1,0.7,0.2,1.4,0.4,2c-2,1-3.4,3.1-3.2,5.5c0.3,3.1,3,5.3,6.1,5.1c1.3-0.1,2.4-0.7,3.3-1.5c0.5,3.8,3.9,6.5,7.7,6.1
			c3.9-0.3,6.9-3.8,6.5-7.8c-0.1-1.6-0.8-3.1-1.8-4.2c0.5,0.1,1.1,0.2,1.7,0.2c2.7-0.2,4.7-2.6,4.5-5.4C117.4,69,115,67,112.2,67.3z
			"/>
		<path fill="#0093FF" d="M106.1,90.5c-3.5,0-6.6-2.1-8-5.2c-0.7,0.3-1.5,0.5-2.2,0.6c-0.2,0-0.4,0-0.6,0c-3.8,0-6.8-2.8-7.2-6.6
			c-0.2-2.5,0.9-4.9,2.9-6.4c-0.1-0.4-0.1-0.7-0.2-1.1c-0.6-6.3,4.1-11.9,10.4-12.4c4.8-0.4,9.2,2.2,11.3,6.3c3.4-0.1,6.4,2.6,6.7,6
			c0.3,3.2-1.9,6.2-4.9,6.9c0.3,0.8,0.5,1.6,0.6,2.4c0.4,4.8-3.1,9.1-8,9.5C106.6,90.5,106.3,90.5,106.1,90.5z M99,81.1
			c0.2,0,0.4,0,0.5,0.1c0.6,0.2,1,0.7,1.1,1.3c0.4,2.9,3,5,6,4.8c3.1-0.3,5.3-3,5-6c-0.1-1.2-0.6-2.3-1.4-3.2
			c-0.5-0.5-0.5-1.3-0.2-1.9c0.4-0.6,1.1-0.9,1.8-0.7c0.4,0.1,0.8,0.1,1.1,0.1c1.8-0.2,3.2-1.8,3-3.6c-0.2-1.8-1.8-3.2-3.6-3
			c-0.2,0-0.3,0.1-0.5,0.1c-0.8,0.2-1.6-0.2-1.9-1c-1.3-3.5-4.7-5.8-8.5-5.4c-4.5,0.4-7.9,4.4-7.5,9c0.1,0.6,0.2,1.1,0.3,1.7
			c0.2,0.8-0.1,1.6-0.8,1.9c-1.5,0.7-2.4,2.3-2.2,3.9c0.2,2.2,2.1,3.8,4.3,3.6c0.9-0.1,1.7-0.4,2.3-1.1C98.2,81.3,98.6,81.1,99,81.1
			z"/>
	</g>
	<g>
		<path fill="#FFFFFF" d="M104.5,68.3c0,0,0.3,2.6-2,4.1c0,0,3.4-1.3,5.7,0.7"/>
		<path fill="#FFC40C" d="M108.2,74.7c-0.4,0-0.7-0.1-1-0.4c-1.5-1.3-4.1-0.4-4.1-0.4c-0.8,0.3-1.6-0.1-2-0.8
			c-0.4-0.7-0.1-1.6,0.6-2.1c1.5-0.9,1.3-2.5,1.3-2.5c-0.1-0.9,0.5-1.7,1.4-1.8c0.9-0.1,1.7,0.5,1.8,1.4c0.1,0.6,0,1.4-0.2,2.3
			c1.1,0.1,2.3,0.5,3.4,1.4c0.7,0.6,0.7,1.6,0.2,2.3C109.1,74.5,108.7,74.7,108.2,74.7z"/>
	</g>
</g>
<g>
	<g>
		<path fill="#FFDD00" d="M37,75.9c-0.2,0-0.4,0.1-0.6,0.1c-1.2-3.2-4.4-5.4-7.9-5.1c-4.2,0.4-7.4,4.1-7,8.3c0,0.5,0.2,1.1,0.3,1.6
			c-1.6,0.8-2.6,2.4-2.5,4.3c0.2,2.4,2.3,4.2,4.7,4c1-0.1,1.9-0.5,2.6-1.2c0.4,2.9,3,5.1,6,4.8c3.1-0.3,5.4-3,5.1-6.1
			c-0.1-1.3-0.6-2.4-1.4-3.3c0.4,0.1,0.9,0.2,1.3,0.1c2.1-0.2,3.7-2.1,3.5-4.2C41,77.3,39.1,75.7,37,75.9z"/>
		<path fill="#0093FF" d="M32.2,94.4c-2.8,0-5.2-1.6-6.4-4c-0.5,0.2-1,0.3-1.5,0.3c-0.2,0-0.4,0-0.5,0c-3.1,0-5.7-2.3-5.9-5.4
			c-0.2-2,0.7-4,2.2-5.2c0-0.2-0.1-0.5-0.1-0.7c-0.2-2.5,0.5-4.9,2.1-6.8c1.6-1.9,3.8-3.1,6.3-3.3c3.8-0.3,7.3,1.7,9,4.9
			c2.8,0,5.1,2.2,5.4,5c0.2,2.6-1.4,4.9-3.7,5.7c0.2,0.5,0.3,1.1,0.3,1.6c0.3,4-2.6,7.5-6.5,7.8C32.6,94.4,32.4,94.4,32.2,94.4z
			 M26.7,86.3c0.2,0,0.4,0,0.5,0.1c0.6,0.2,1,0.7,1.1,1.3c0.3,2.1,2.2,3.6,4.3,3.4c2.2-0.2,3.8-2.1,3.6-4.3c-0.1-0.9-0.4-1.7-1-2.3
			c-0.5-0.5-0.5-1.3-0.2-1.9c0.4-0.6,1.1-0.9,1.8-0.7c0.3,0.1,0.5,0.1,0.8,0.1c1.2-0.1,2.1-1.2,2-2.4c-0.1-1.2-1.2-2.1-2.4-2
			c-0.1,0-0.2,0-0.3,0.1c-0.8,0.2-1.6-0.2-1.9-1c-0.9-2.6-3.5-4.2-6.3-4c-1.6,0.1-3.1,0.9-4.1,2.2c-1,1.2-1.5,2.8-1.4,4.4
			c0,0.4,0.1,0.8,0.2,1.3c0.2,0.8-0.1,1.6-0.8,1.9c-1,0.5-1.7,1.6-1.6,2.7c0.1,1.5,1.5,2.6,3,2.5c0.8-0.1,1.3-0.4,1.6-0.7
			C25.9,86.5,26.3,86.3,26.7,86.3z"/>
	</g>
	<g>
		<path fill="#FFFFFF" d="M31,76.7c0,0,0.3,2-1.6,3.2c0,0,2.7-1,4.5,0.5"/>
		<path fill="#FFC40C" d="M33.9,82c-0.4,0-0.7-0.1-1-0.4c-1-0.9-2.9-0.3-2.9-0.3c-0.8,0.3-1.6-0.1-2-0.8c-0.4-0.7-0.1-1.6,0.6-2.1
			c1-0.6,0.9-1.6,0.9-1.6c-0.1-0.9,0.5-1.7,1.4-1.8c0.9-0.1,1.7,0.5,1.8,1.4c0.1,0.4,0,1-0.1,1.6c0.8,0.2,1.7,0.5,2.4,1.1
			c0.7,0.6,0.8,1.6,0.2,2.3C34.8,81.9,34.3,82,33.9,82z"/>
	</g>
</g>
<g>
	<path fill="#FFFFFF" d="M112.6,112.7c0,0-5.1,5.4-23.6,5.4c-18.5,0-23.6-5.4-23.6-5.4l-3.2-36.2c0,0,8.3,4.3,26.3,4.3
		c18.1,0,27.2-4.3,27.2-4.3L112.6,112.7z"/>
	<path fill="#0093FF" d="M89,119.8c-18.9,0-24.5-5.7-24.7-5.9c-0.2-0.3-0.4-0.6-0.4-1l-3.2-36.2c-0.1-0.6,0.2-1.2,0.7-1.5
		c0.5-0.3,1.1-0.4,1.6-0.1c0.1,0,8.2,4.2,25.6,4.2c17.4,0,26.4-4.1,26.5-4.2c0.5-0.2,1.1-0.2,1.6,0.1c0.5,0.3,0.7,0.9,0.7,1.5
		l-3.2,36.2c0,0.4-0.2,0.7-0.4,1C113.5,114.1,107.9,119.8,89,119.8z M67,111.9c1.4,1.1,7.3,4.6,22,4.6c14.7,0,20.6-3.5,22-4.6
		L114,79c-3.9,1.3-12.4,3.5-25.4,3.5c-12.8,0-20.7-2.1-24.5-3.5L67,111.9z"/>
</g>
<g>
	<circle fill="#FFFFFF" cx="15.9" cy="92.3" r="14.3"/>
	<path fill="#0093FF" d="M15.9,108.2C7.2,108.2,0,101.1,0,92.3c0-8.8,7.2-15.9,15.9-15.9c8.8,0,15.9,7.2,15.9,15.9
		C31.9,101.1,24.7,108.2,15.9,108.2z M15.9,79.6c-7,0-12.7,5.7-12.7,12.7c0,7,5.7,12.7,12.7,12.7s12.7-5.7,12.7-12.7
		C28.7,85.3,23,79.6,15.9,79.6z"/>
</g>
</svg>
