<?xml version="1.0" encoding="utf-8"?>
<!-- Generator: Adobe Illustrator 18.0.0, SVG Export Plug-In . SVG Version: 6.00 Build 0)  -->
<!DOCTYPE svg PUBLIC "-//W3C//DTD SVG 1.1//EN" "http://www.w3.org/Graphics/SVG/1.1/DTD/svg11.dtd">
<svg version="1.1" id="Layer_1" xmlns="http://www.w3.org/2000/svg" xmlns:xlink="http://www.w3.org/1999/xlink" x="0px" y="0px"
	 viewBox="0 0 120 120" enable-background="new 0 0 120 120" xml:space="preserve">
<g>
	<g>
		<g>
			<path fill="#FFFFFF" d="M32.7,118.1V41.8C32.7,24.2,46.9,10,64.5,10l0,0C82,10,96.3,24.2,96.3,41.8v76.5"/>
			<path fill="#0093FF" d="M96.3,120c-0.9,0-1.7-0.8-1.7-1.7V41.8c0-16.6-13.5-30.1-30.1-30.1c-16.6,0-30.1,13.5-30.1,30.1v76.3
				c0,0.9-0.8,1.7-1.7,1.7c-0.9,0-1.7-0.8-1.7-1.7V41.8C31,23.3,46,8.3,64.5,8.3c18.5,0,33.5,15,33.5,33.5v76.5
				C98,119.2,97.2,120,96.3,120z"/>
		</g>
		<g>
			<circle fill="#0095FF" cx="76.6" cy="39.5" r="4.1"/>
			<path fill="#0095FF" d="M76.6,44.8c-2.9,0-5.3-2.4-5.3-5.3c0-2.9,2.4-5.3,5.3-5.3c2.9,0,5.3,2.4,5.3,5.3
				C81.9,42.4,79.5,44.8,76.6,44.8z M76.6,36.5c-1.7,0-3,1.3-3,3c0,1.7,1.3,3,3,3c1.7,0,3-1.3,3-3C79.6,37.8,78.3,36.5,76.6,36.5z"
				/>
		</g>
		<g>
			<path fill="#0095FF" d="M65.2,56.4c-2.7,0-5.9-0.7-9.4-2.8c-0.8-0.5-1.1-1.6-0.6-2.4c0.5-0.8,1.6-1.1,2.4-0.6
				c8.6,5.3,14.8-0.1,14.9-0.1c0.7-0.6,1.8-0.6,2.4,0.2c0.6,0.7,0.6,1.8-0.2,2.4c-0.1,0.1-2.1,1.8-5.5,2.8
				C68.1,56.1,66.7,56.4,65.2,56.4z"/>
		</g>
	</g>
	<g>
		<path fill="#0095FF" d="M79.5,92.4c-3.1,0-5.6-2-5.6-4.7c0-2.6,2.5-4.7,5.6-4.7c3.1,0,5.6,2,5.6,4.7
			C85.1,90.4,82.6,92.4,79.5,92.4z M78.9,87.8c0.3,0.1,0.9,0.1,1.3,0C79.8,87.7,79.2,87.7,78.9,87.8z"/>
	</g>
	<g>
		<path fill="#0093FF" d="M82.8,89.5c-0.8,0-1.6-0.6-1.7-1.5c-0.1-0.9,0.5-1.8,1.5-1.9c4.9-0.7,17.8-4,17.9-10.9
			c0-0.9-0.2-1.6-0.7-2.2C98.6,72,96.6,72,96.6,72c-0.9,0.1-1.7-0.7-1.8-1.7c0-0.9,0.7-1.7,1.7-1.8c0.3,0,3.5,0,5.6,2
			c1.2,1.2,1.8,2.8,1.8,4.6c-0.2,11.1-20,14.1-20.8,14.2C83,89.5,82.9,89.5,82.8,89.5z"/>
	</g>
	<g>
		<g>
			<path fill="#2E3192" d="M62.7,12.7c0,6.4-6.4,11.5-12.8,11.5h-5.4c-6.4,0-9-5.2-9-11.5l0,0c0-6.4,0.2-11.5,6.6-11.5h15.3
				c3.8,0,5.3,2.5,5.3,4.7C62.7,8,62.7,10.1,62.7,12.7L62.7,12.7z"/>
			<path fill="#0093FF" d="M50,25.3h-5.4c-6.4,0-10.2-4.7-10.2-12.7c0-5.9,0-12.7,7.7-12.7h15.3c4.4,0,6.4,3,6.4,5.8
				c0,1,0,2.1,0,3.1c0,1.2,0,2.4,0,3.7C63.9,19.4,57.4,25.3,50,25.3z M42.1,2.3c-4.9,0-5.4,3.2-5.4,10.4c0,3.1,0.8,10.4,7.9,10.4H50
				c5.5,0,11.6-4.4,11.6-10.4c0-1.3,0-2.5,0-3.7c0-1.1,0-2.1,0-3.1c0-1.6-1.1-3.6-4.1-3.6H42.1z"/>
		</g>
		<g>
			<path fill="#FFFFFF" d="M45.1,7.2c0,0-1.4,0.1-2.4,1.3c-0.9,1.2-0.8,2.8-0.8,2.8"/>
			<path fill="#0095FF" d="M41.9,13.1c-0.9,0-1.6-0.7-1.7-1.6c0-0.2-0.1-2.2,1.2-3.9c1.4-1.8,3.4-2,3.6-2c0.9-0.1,1.8,0.6,1.8,1.6
				c0.1,0.9-0.6,1.7-1.6,1.8c-0.1,0-0.7,0.1-1.2,0.7c-0.5,0.7-0.5,1.6-0.5,1.6c0.1,0.9-0.6,1.8-1.6,1.8C42,13.1,42,13.1,41.9,13.1z"
				/>
		</g>
		<g>
			<path fill="#2E3192" d="M66.2,12.7c0,6.4,6.4,11.5,12.8,11.5h5.4c6.4,0,9-5.2,9-11.5l0,0c0-6.4-0.2-11.5-6.6-11.5H71.5
				c-3.8,0-5.3,2.5-5.3,4.7C66.2,8,66.2,10.1,66.2,12.7L66.2,12.7z"/>
			<path fill="#0093FF" d="M84.4,25.3H79c-7.4,0-13.9-5.9-13.9-12.7c0-1.3,0-2.5,0-3.7c0-1.1,0-2.1,0-3.1c0-2.8,2-5.8,6.4-5.8h15.3
				c7.7,0,7.7,6.7,7.7,12.7C94.5,20.6,90.7,25.3,84.4,25.3z M71.5,2.3c-3.1,0-4.1,1.9-4.1,3.6c0,1,0,2.1,0,3.1c0,1.2,0,2.4,0,3.7
				C67.3,18.6,73.5,23,79,23h5.4c7.1,0,7.9-7.3,7.9-10.4c0-7.2-0.5-10.4-5.4-10.4H71.5z"/>
		</g>
		<g>
			<path fill="#FFFFFF" d="M75.9,7.2c0,0-1.4,0.1-2.4,1.3c-0.9,1.2-0.8,2.8-0.8,2.8"/>
			<path fill="#0095FF" d="M72.6,13.1c-0.9,0-1.6-0.7-1.7-1.6c0-0.2-0.1-2.2,1.2-3.9c1.4-1.8,3.4-2,3.6-2c0.9-0.1,1.8,0.6,1.8,1.6
				c0.1,0.9-0.6,1.7-1.6,1.8c-0.1,0-0.7,0.1-1.2,0.7c-0.5,0.7-0.5,1.6-0.5,1.7c0,0.9-0.7,1.7-1.6,1.8C72.7,13.1,72.7,13.1,72.6,13.1
				z"/>
		</g>
		<g>
			<path fill="#0093FF" d="M65,5.9h-1.2c-0.9,0-1.7-0.8-1.7-1.7c0-0.9,0.8-1.7,1.7-1.7H65c0.9,0,1.7,0.8,1.7,1.7
				C66.7,5.1,65.9,5.9,65,5.9z"/>
		</g>
	</g>
	<g>
		<path fill="#0095FF" d="M18.7,85.2c-1,0-1.9-0.7-2.2-1.7c-2.8-10.9,14.2-16.3,14.9-16.6c1.2-0.4,2.5,0.3,2.9,1.5
			c0.4,1.2-0.3,2.5-1.5,2.9c-0.1,0-13.5,4.4-11.8,11.1c0.3,1.2-0.4,2.5-1.7,2.8C19.1,85.1,18.9,85.2,18.7,85.2z"/>
	</g>
	<g>
		<path fill="#FFFFFF" d="M111.8,89.2c0,7.1-5.8,12.8-12.9,12.8c-7.1,0-12.8-5.8-12.8-12.8c0-7.1,5.8-12.9,12.8-12.9
			C106.1,76.3,111.8,82.1,111.8,89.2z"/>
		<path fill="#0093FF" d="M99,103.7c-8,0-14.6-6.5-14.6-14.6c0-8,6.5-14.6,14.6-14.6c8,0,14.6,6.5,14.6,14.6
			C113.5,97.2,107,103.7,99,103.7z M99,78.1c-6.1,0-11.1,5-11.1,11.1c0,6.1,5,11.1,11.1,11.1c6.1,0,11.1-5,11.1-11.1
			C110.1,83,105.1,78.1,99,78.1z"/>
	</g>
	<g>
		<path fill="#FFFFFF" d="M41,79.4c0,0.9-0.7,1.6-1.6,1.6h-8.8c-0.9,0-1.6-0.7-1.6-1.6v-5.8c0-0.9,0.7-1.6,1.6-1.6h8.8
			c0.9,0,1.6,0.7,1.6,1.6V79.4z"/>
		<path fill="#0095FF" d="M43,79.2c0,2.1-1.8,3.8-4.1,3.8h-8.8c-2.3,0-4.1-1.7-4.1-3.8v-6.4c0-2.1,1.8-3.8,4.1-3.8h8.8
			c2.3,0,4.1,1.7,4.1,3.8V79.2z M31,79h8v-5h-8V79z"/>
	</g>
	<g>
		<g>
			<path fill="#FCC0B2" d="M76.8,105.5c0,4.2-3.4,7.6-7.6,7.6h-41c-4.2,0-7.6-3.4-7.6-7.6V85.4c0-4.2,3.4-7.6,7.6-7.6h41
				c4.2,0,7.6,3.4,7.6,7.6V105.5z"/>
			<path fill="#0095FF" d="M69.2,114.8h-41c-5.2,0-9.4-4.2-9.4-9.4V85.4c0-5.2,4.2-9.4,9.4-9.4h41c5.2,0,9.4,4.2,9.4,9.4v20.1
				C78.6,110.6,74.4,114.8,69.2,114.8z M28.2,79.5c-3.3,0-5.9,2.7-5.9,5.9v20.1c0,3.3,2.7,5.9,5.9,5.9h41c3.3,0,5.9-2.7,5.9-5.9
				V85.4c0-3.3-2.7-5.9-5.9-5.9H28.2z"/>
		</g>
		<g>
			<path fill="#FC938C" d="M70.3,85.5c0,1.1-0.9,1.9-1.9,1.9l0,0c-1.1,0-1.9-0.9-1.9-1.9l0,0c0-1.1,0.9-1.9,1.9-1.9l0,0
				C69.4,83.5,70.3,84.4,70.3,85.5L70.3,85.5z"/>
			<path fill="#FCA28C" d="M68.3,89.7c-2.3,0-4.2-1.9-4.2-4.2c0-2.3,1.9-4.2,4.2-4.2c2.3,0,4.2,1.9,4.2,4.2
				C72.5,87.8,70.7,89.7,68.3,89.7z M68.3,85.1c-0.2,0-0.4,0.2-0.4,0.4c0,0.2,0.2,0.4,0.4,0.4c0.2,0,0.4-0.2,0.4-0.4
				C68.7,85.3,68.5,85.1,68.3,85.1z"/>
		</g>
		<g>
			<g>
				<g>
					<circle fill="#FCD4AF" cx="48" cy="95.6" r="12.4"/>
					<path fill="#0095FF" d="M48,109.1c-7.5,0-13.6-6.1-13.6-13.6C34.5,88.1,40.6,82,48,82c7.5,0,13.6,6.1,13.6,13.6
						C61.6,103.1,55.5,109.1,48,109.1z M48,84.3c-6.2,0-11.3,5.1-11.3,11.3c0,6.2,5.1,11.3,11.3,11.3c6.2,0,11.3-5.1,11.3-11.3
						C59.3,89.4,54.2,84.3,48,84.3z"/>
				</g>
				<g>
					<path fill="#FFFFFF" d="M56.3,95.6c0,4.6-3.7,8.3-8.3,8.3c-4.6,0-8.3-3.7-8.3-8.3c0-4.6,3.7-8.3,8.3-8.3
						C52.6,87.3,56.3,91,56.3,95.6z"/>
					<path fill="#0095FF" d="M48,105c-5.2,0-9.4-4.2-9.4-9.4c0-5.2,4.2-9.4,9.4-9.4c5.2,0,9.4,4.2,9.4,9.4
						C57.4,100.8,53.2,105,48,105z M48,88.5c-3.9,0-7.1,3.2-7.1,7.1c0,3.9,3.2,7.1,7.1,7.1c3.9,0,7.1-3.2,7.1-7.1
						C55.2,91.6,52,88.5,48,88.5z"/>
				</g>
			</g>
			<g>
				<path fill="#0095FF" d="M52.6,96.6c-0.5,0-1-0.3-1.1-0.8c-1-3.5-3.9-3.5-3.9-3.5c-0.6,0-1.2-0.5-1.2-1.1c0-0.6,0.5-1.2,1.1-1.2
					c0,0,0,0,0.1,0c1.6,0,4.9,1.1,6.1,5.2c0.2,0.6-0.2,1.2-0.8,1.4C52.8,96.6,52.7,96.6,52.6,96.6z"/>
			</g>
		</g>
	</g>
	<g>
		<path fill="#FFFFFF" d="M27.4,93.8c0,7.1-5.8,12.8-12.9,12.8c-7.1,0-12.8-5.8-12.8-12.8c0-7.1,5.8-12.9,12.8-12.9
			C21.7,80.9,27.4,86.7,27.4,93.8z"/>
		<path fill="#0093FF" d="M14.6,108.3c-8,0-14.6-6.5-14.6-14.6c0-8,6.5-14.6,14.6-14.6c8,0,14.6,6.5,14.6,14.6
			C29.1,101.8,22.6,108.3,14.6,108.3z M14.6,82.6c-6.1,0-11.1,5-11.1,11.1c0,6.1,5,11.1,11.1,11.1c6.1,0,11.1-5,11.1-11.1
			C25.7,87.6,20.7,82.6,14.6,82.6z"/>
	</g>
</g>
<g>
	<polyline fill="#FFFFFF" points="49.5,35.5 57.5,39.2 49.5,44 	"/>
	<path fill="#0093FF" d="M49.5,45.7c-0.6,0-1.1-0.3-1.5-0.8c-0.5-0.8-0.2-1.9,0.6-2.3l5.2-3.1l-5-2.3c-0.9-0.4-1.2-1.4-0.8-2.3
		c0.4-0.9,1.4-1.2,2.3-0.8l8,3.7c0.6,0.3,1,0.8,1,1.5c0,0.6-0.3,1.2-0.8,1.6l-8,4.8C50.1,45.6,49.8,45.7,49.5,45.7z"/>
</g>
</svg>
