<?xml version="1.0" encoding="utf-8"?>
<!-- Generator: Adobe Illustrator 19.0.0, SVG Export Plug-In . SVG Version: 6.00 Build 0)  -->
<svg version="1.1" id="Layer_1" xmlns="http://www.w3.org/2000/svg" xmlns:xlink="http://www.w3.org/1999/xlink" x="0px" y="0px"
	 viewBox="59 -60 120 120" style="enable-background:new 59 -60 120 120;" xml:space="preserve">
<style type="text/css">
	.st0{fill:#0093FF;stroke:#0093FF;stroke-linecap:round;stroke-linejoin:round;stroke-miterlimit:10;}
	.st1{fill:none;stroke:#0093FF;stroke-width:3;stroke-linecap:round;stroke-linejoin:round;stroke-miterlimit:10;}
	.st2{fill:#BD131B;}
	.st3{fill:#D82F2D;stroke:#0093FF;stroke-width:2;stroke-linecap:round;stroke-linejoin:round;stroke-miterlimit:10;}
	.st4{fill:#FFC40C;}
	.st5{fill:#FFDD00;stroke:#0093FF;stroke-width:3;stroke-linecap:round;stroke-linejoin:round;stroke-miterlimit:10;}
	.st6{fill:#FFC40C;stroke:#0093FF;stroke-width:3;stroke-linecap:round;stroke-linejoin:round;stroke-miterlimit:10;}
	.st7{fill:#2E3192;}
	.st8{fill:#3452C8;stroke:#0093FF;stroke-width:2;stroke-linecap:round;stroke-linejoin:round;stroke-miterlimit:10;}
</style>
<path class="st0" d="M111.9-6c0,0-1.1,9.1,6,9.1c7.1,0,6-9.1,6-9.1H111.9z"/>
<circle class="st0" cx="108.1" cy="-17" r="3.6"/>
<circle class="st0" cx="127.7" cy="-17" r="3.6"/>
<path class="st1" d="M91.2,42.1v-59.7c0-15,12.1-27.1,27.1-27.1l0,0c15,0,27.1,12.1,27.1,24.6v48.5"/>
<polygon class="st2" points="78.2,9.8 81.2,7.1 86.1,7.9 103.5,14.2 100,17.7 "/>
<polyline class="st3" points="100.2,17.2 107.1,14.5 107.1,54.2 100,56.9 "/>
<polygon class="st3" points="100,56.9 74.8,48.7 74.8,9.7 100,17.7 "/>
<line class="st1" x1="82.8" y1="6.4" x2="107.1" y2="14.1"/>
<line class="st1" x1="75.1" y1="9" x2="82.5" y2="6.5"/>
<path class="st1" d="M78.6,7.6c0,0,2-9.5,12.9-6.4c12.5,3.5,11.6,14.6,11.6,14.6"/>
<polygon class="st4" points="63.8,10.8 69.5,8.5 74.4,9.3 91.8,15.6 88.3,19.1 "/>
<polyline class="st5" points="86.8,18.6 93.7,15.9 93.7,55.7 86.6,58.3 "/>
<polygon class="st5" points="86.6,58.3 61.4,50.1 61.4,10.4 86.6,19.1 "/>
<line class="st6" x1="69.4" y1="7.8" x2="93.5" y2="15.3"/>
<line class="st1" x1="61.7" y1="10.4" x2="69.1" y2="7.9"/>
<path class="st1" d="M65.2,9c0,0,2-9.5,12.9-6.4c12.5,3.5,11.6,14.6,11.6,14.6"/>
<polygon class="st7" points="157.8,9.8 154.8,7.1 150,7.9 132.6,14.1 136.2,17.6 "/>
<polyline class="st8" points="135.9,17.1 129.1,14.5 129.1,54 136.2,56.6 "/>
<polygon class="st8" points="136.2,56.6 161.2,48.5 161.2,9.7 136.2,17.6 "/>
<line class="st1" x1="153.3" y1="6.4" x2="129.1" y2="13.9"/>
<line class="st1" x1="161" y1="9" x2="153.6" y2="6.5"/>
<path class="st1" d="M157.5,7.6c0,0-2-9.5-12.8-6.4c-12.5,3.5-11.6,14.5-11.6,14.5"/>
<polygon class="st4" points="171.1,11.2 168.2,8.5 163.3,9.3 146,15.5 149.5,19 "/>
<polyline class="st5" points="149.3,18.5 142.4,15.9 142.4,55.4 149.5,58 "/>
<polygon class="st5" points="149.5,58.1 174.5,49.9 174.3,10.4 149.5,19 "/>
<line class="st6" x1="166.6" y1="7.8" x2="142.6" y2="15.2"/>
<line class="st1" x1="174.3" y1="10.4" x2="166.9" y2="7.9"/>
<path class="st1" d="M170.8,9c0,0-2-9.5-12.8-6.4c-12.5,3.5-11.6,14.5-11.6,14.5"/>
</svg>
