<?xml version="1.0" encoding="utf-8"?>
<!-- Generator: Adobe Illustrator 18.0.0, SVG Export Plug-In . SVG Version: 6.00 Build 0)  -->
<!DOCTYPE svg PUBLIC "-//W3C//DTD SVG 1.1//EN" "http://www.w3.org/Graphics/SVG/1.1/DTD/svg11.dtd">
<svg version="1.1" id="Layer_1" xmlns="http://www.w3.org/2000/svg" xmlns:xlink="http://www.w3.org/1999/xlink" x="0px" y="0px"
	 viewBox="0 0 120 120" enable-background="new 0 0 120 120" xml:space="preserve">
<g>
	<g>
		<path fill="#0093FF" d="M51.2,56.9c0,2.2-1.8,4-4,4c-2.2,0-4-1.8-4-4c0-2.2,1.8-4,4-4C49.4,52.9,51.2,54.7,51.2,56.9z"/>
		<path fill="#0093FF" d="M47.2,61.4c-2.5,0-4.5-2-4.5-4.5c0-2.5,2-4.5,4.5-4.5c2.5,0,4.5,2,4.5,4.5C51.7,59.4,49.7,61.4,47.2,61.4z
			 M47.2,53.4c-1.9,0-3.5,1.6-3.5,3.5c0,1.9,1.6,3.5,3.5,3.5c1.9,0,3.5-1.6,3.5-3.5C50.7,54.9,49.1,53.4,47.2,53.4z"/>
	</g>
	<g>
		<path fill="#0093FF" d="M70.5,56.9c0,2.2-1.8,4-4,4c-2.2,0-4-1.8-4-4c0-2.2,1.8-4,4-4C68.7,52.9,70.5,54.7,70.5,56.9z"/>
		<path fill="#0093FF" d="M66.5,61.4c-2.5,0-4.5-2-4.5-4.5c0-2.5,2-4.5,4.5-4.5c2.5,0,4.5,2,4.5,4.5C71,59.4,69,61.4,66.5,61.4z
			 M66.5,53.4c-1.9,0-3.5,1.6-3.5,3.5c0,1.9,1.6,3.5,3.5,3.5c1.9,0,3.5-1.6,3.5-3.5C69.9,54.9,68.4,53.4,66.5,53.4z"/>
	</g>
	<g>
		<path fill="#0093FF" d="M85.3,120c-0.9,0-1.6-0.7-1.6-1.6V53.7c0-14.8-12-26.9-26.9-26.9C42,26.8,30,38.9,30,53.7v64.7
			c0,0.9-0.7,1.6-1.6,1.6c-0.9,0-1.6-0.7-1.6-1.6V53.7c0-16.6,13.5-30,30-30c16.6,0,30,13.5,30,30v64.7
			C86.9,119.3,86.1,120,85.3,120z"/>
	</g>
	<g>
		<path fill="#0093FF" d="M93.9,46.8c-0.8,0-1.5-0.6-1.6-1.4c-2.3-17.8-17.5-31.2-35.5-31.2c-18,0-33.2,13.4-35.5,31.2
			c-0.1,0.9-0.9,1.5-1.8,1.4c-0.9-0.1-1.5-0.9-1.4-1.8c2.5-19.4,19.1-34,38.6-34C76.4,11,93,25.6,95.5,45c0.1,0.9-0.5,1.7-1.4,1.8
			C94,46.8,94,46.8,93.9,46.8z"/>
	</g>
	<g>
		<path fill="#FFDD00" d="M16.8,45C8.4,45,1.6,52.5,1.6,61.8c0,9.3,6.8,16.8,15.3,16.8c1.4,0,4-1.2,4-3.5c0-6.1,0-19.3,0-27
			C20.8,45.6,18.2,45,16.8,45z"/>
		<path fill="#0093FF" d="M16.8,80.2C7.6,80.2,0,71.9,0,61.8c0-10.1,7.6-18.4,16.8-18.4c2.7,0,5.5,1.5,5.5,4.8v27
			C22.4,78.2,19.2,80.2,16.8,80.2z M16.8,46.5c-7.5,0-13.7,6.8-13.7,15.2C3.2,70.2,9.3,77,16.8,77c0.7,0,2.4-0.7,2.4-1.9v-27
			C19.2,46.6,17.1,46.5,16.8,46.5z"/>
	</g>
	<g>
		<path fill="#FFDD00" d="M97.1,45c8.4,0,15.3,7.5,15.3,16.8c0,9.3-6.8,16.8-15.3,16.8c-1.4,0-4-1.2-4-3.5c0-6.1,0-19.3,0-27
			C93.1,45.6,95.7,45,97.1,45z"/>
		<path fill="#0093FF" d="M97.1,80.2c-2.3,0-5.5-1.9-5.5-5.1v-27c0-3.3,2.9-4.8,5.5-4.8c9.3,0,16.8,8.3,16.8,18.4
			C113.9,71.9,106.3,80.2,97.1,80.2z M97.1,46.5c-0.2,0-2.4,0-2.4,1.6v27c0,1.2,1.7,1.9,2.4,1.9c7.5,0,13.7-6.8,13.7-15.2
			C110.7,53.4,104.6,46.5,97.1,46.5z"/>
	</g>
</g>
<g>
	<g>
		<path fill="#0093FF" d="M79,119H58.3c-0.8,0-1.5-0.2-1.6-0.9l-5.5-36.8c-0.1-0.5,0.1-1.2,0.4-1.5c0.3-0.3,0.7-0.8,1.2-0.8h31.7
			c0.5,0,0.9,0.6,1.2,0.9c0.3,0.3,0.4,1,0.4,1.4L80.6,118C80.5,118.8,79.8,119,79,119z M59.7,116h17.9l5-34h-28L59.7,116z"/>
	</g>
</g>
<g>
	<path fill="#FFFFFF" d="M94.4,101.2c0,6.7-5.4,12.1-12.1,12.1c-6.7,0-12.1-5.4-12.1-12.1c0-6.7,5.4-12.1,12.1-12.1
		C89,89.1,94.4,94.5,94.4,101.2z"/>
	<path fill="#0093FF" d="M82.3,114.9c-7.5,0-13.7-6.1-13.7-13.7c0-7.5,6.1-13.7,13.7-13.7c7.5,0,13.7,6.1,13.7,13.7
		C96,108.7,89.9,114.9,82.3,114.9z M82.3,90.7c-5.8,0-10.5,4.7-10.5,10.5c0,5.8,4.7,10.5,10.5,10.5c5.8,0,10.5-4.7,10.5-10.5
		C92.9,95.4,88.1,90.7,82.3,90.7z"/>
</g>
<g>
	<path fill="#0093FF" d="M66.6,77.9c-0.8,0-1.4-0.6-1.6-1.3l-0.6-3.8L56,68.2c-0.8-0.4-1.1-1.4-0.6-2.1c0.4-0.8,1.4-1.1,2.1-0.6
		l9.2,4.9c0.4,0.2,0.7,0.7,0.8,1.2l0.7,4.6c0.1,0.9-0.5,1.7-1.3,1.8C66.7,77.9,66.7,77.9,66.6,77.9z"/>
</g>
<g>
	<path fill="#FFFFFF" d="M88,81.4c0,2-1.6,3.6-3.6,3.6H53.6c-2,0-3.6-1.6-3.6-3.6v-0.7c0-2,1.6-3.6,3.6-3.6h30.7
		c2,0,3.6,1.6,3.6,3.6V81.4z"/>
	<path fill="#0093FF" d="M84.6,86H53.9c-2.9,0-5.2-2.6-5.2-5.5c0-3,2.3-5.5,5.2-5.5h30.7c2.9,0,5.2,2.6,5.2,5.5
		C89.9,83.4,87.5,86,84.6,86z M53.9,78c-1.1,0-2.1,0.8-2.1,2c0,1.2,0.9,2,2.1,2h30.7c1.1,0,2.1-0.8,2.1-2c0-1.2-0.9-2-2.1-2H53.9z"
		/>
</g>
<g>
	<path fill="#0093FF" d="M109.2,0.5L97.8,3C97.6,3.1,97,3.3,97,3.6v10c0-0.1-0.4-0.2-1.2-0.2c-1.5,0-2.8,1-2.8,2.7
		c0,1.6,0.6,2.5,2.1,2.5c1.3,0,1.9-0.8,1.9-1.8V7.9c0,0,0.2,0,0.2,0L108,5.5v6.3c0-0.1,0-0.2-0.8-0.2c-1.5,0.1-2.5,1-2.5,2.7
		c0,1.6,0.9,2.5,2.4,2.5c1.3,0,2.2-0.8,2.2-1.8C109.3,15.1,109.4,0.5,109.2,0.5z"/>
	<path fill="#0093FF" d="M95.3,19c-1.9,0-3-1-3-2.9c0-1.8,1.4-3.1,3.3-3.1h0.1c0.1,0,0.2-0.2,1.2-0.2V3.6c0-0.6,0.4-0.9,1-1L109.3,0
		c0,0,0,0,0,0l0,0c0.1,0,0.2,0.1,0.3,0.2c0.2,0.2,0.3,0.3,0.2,14.9c0,1.3-1.2,2.3-2.7,2.3c-1.8,0-2.9-1.1-2.9-3
		c0-1.8,1.3-3.1,3.2-3.2c0.2,0,0.5,0,0.5,0v-5L98,8.3v8.4C98,18,96.9,19,95.3,19z M95.8,13.8c-1.5,0-2.3,0.9-2.3,2.1
		c0,1.7,1.1,2,1.9,2c1.1,0,1.7-0.6,1.7-1.2v-3.2c0,0.3-0.1,0.5-0.4,0.5c-0.2,0-0.3-0.1-0.3-0.2C96.2,13.8,96.1,13.8,95.8,13.8z
		 M107.8,12.2c-0.1,0-0.2,0-0.4,0c-1.3,0.1-2.1,0.9-2.1,2.1c0,1.3,0.6,2,1.8,2c1,0,1.6-0.6,1.6-1.2c0-0.9,0-1.9,0-2.9
		c-0.2,0.2-0.6,0.3-0.8,0C107.9,12.2,107.9,12.2,107.8,12.2z M97,3.7v4c1-0.1,0.3-0.3,0.5-0.3L108.2,5c0.2,0,0.4,0,0.5,0.1
		c0,0,0.1,0.1,0.1,0.1c0-1.8,0-3.3,0-4L97.7,3.6C97.5,3.6,98,3.7,97,3.7z"/>
</g>
</svg>
